<?xml version="1.0" encoding="utf-8"?>
<!-- Generator: Adobe Illustrator 21.0.0, SVG Export Plug-In . SVG Version: 6.00 Build 0)  -->
<svg version="1.1" id="Layer_1" xmlns="http://www.w3.org/2000/svg" xmlns:xlink="http://www.w3.org/1999/xlink" x="0px" y="0px"
	 viewBox="0 0 60 60" style="enable-background:new 0 0 60 60;" xml:space="preserve">
<style type="text/css">
	.st0{fill:#00D66C;}
	.st1{fill:#FEFEFE;}
</style>
<g id="PnGiau_1_">
	<g>
		<path class="st0" d="M30,60C13.2,60,0,46.7,0,29.9C0,13.3,13.3,0,30,0c16.8,0,30,13.3,30,30.2C60,46.8,46.7,60,30,60z"/>
		<path class="st1" d="M19.6,29.3c-1.5,0-3.1,0-4.6,0c-1.8,0-2.7-0.9-2.8-2.7c0-2.7,0.7-3.4,3.3-3.4c2.3,0,4.6,0,7,0
			c0.8,0,1.6-0.1,2.4,0.1c0-3.3,0-6.6,0-9.9c0-1.7,1-2.6,2.6-2.6c0.4,0,0.8,0,1.2,0c1.7,0,2.6,0.9,2.6,2.6c0,1.6,0,3.2,0,4.8
			c0,0.5,0.1,0.6,0.6,0.6c1.5,0,2.9,0,4.4,0c1.7,0,2.6,0.9,2.7,2.6c0,0.5,0,0.9-0.1,1.4c-0.2,1.2-1,2-2.3,2c-3.2,0-6.3,0-9.5,0
			c-0.3,0-0.6-0.1-0.8-0.1c0,3.7-0.1,7.4,0,11.1c0.1,2.5,1,4.5,3.3,5.7c3.4,1.7,8.5,0.3,9.2-4.7c0.1-0.4,0.2-0.8,0.3-1.2
			c0.4-0.9,1-1.3,1.9-1.4c0.8,0,1.6,0,2.4,0c1.4,0.1,2.3,1,2.1,2.4c-0.7,6.6-5.1,11.3-11.8,11.8c-3.5,0.2-6.8-0.5-9.6-2.8
			c-3.1-2.5-4.3-6-4.4-9.8c-0.1-2,0-4.1,0-6.1c0-0.2,0.1-0.4-0.1-0.6C19.7,29.4,19.6,29.4,19.6,29.3z"/>
	</g>
</g>
</svg>
